<?xml version='1.0' encoding='UTF-8'?>
<svg x="0px" y="0px" viewBox="0 0 32 32" version="1.1" xmlns="http://www.w3.org/2000/svg" xmlns:xlink="http://www.w3.org/1999/xlink" xml:space="preserve" id="PageCount" style="enable-background:new 0 0 32 32">
  <style type="text/css">
	.Black{fill:#727272;}
	.Blue{fill:#1177D7;}
</style>
  <path d="M27,6h-3V3c0-0.5-0.5-1-1-1H3C2.5,2,2,2.5,2,3v22c0,0.5,0.5,1,1,1h3v3c0,0.5,0.5,1,1,1h20c0.5,0,1-0.5,1-1V7  C28,6.5,27.5,6,27,6z M6,7v17H4V4h18v2H7C6.5,6,6,6.5,6,7z M26,28H8V8h18V28z" class="Black" />
  <path d="M22,15.3l-0.3,1.6H20l-0.5,2.3h1.8L21,20.8h-1.7L18.5,24h-1.8l0.6-3.2h-2L14.8,24H13l0.6-3.2H12l0.3-1.6H14  l0.5-2.3h-1.8l0.3-1.6h1.8l0.7-3.3h1.8l-0.7,3.3h2l0.7-3.3H21l-0.7,3.3H22z M18.3,16.9h-2l-0.5,2.3h2L18.3,16.9z" class="Blue" />
</svg>